<svg width="49" height="43" viewBox="0 0 49 43" fill="none" xmlns="http://www.w3.org/2000/svg">
<path d="M11.875 28.3214C11.5972 28.327 11.3262 28.235 11.1092 28.0614C10.8923 27.8879 10.743 27.6437 10.6875 27.3714L7.90875 13.3708C7.74691 12.5639 7.31072 11.838 6.67428 11.3163C6.03785 10.7946 5.24043 10.5093 4.4175 10.5089H2.375C2.06006 10.5089 1.75801 10.3838 1.53531 10.1611C1.31261 9.9384 1.1875 9.63636 1.1875 9.32141C1.1875 9.00647 1.31261 8.70442 1.53531 8.48172C1.75801 8.25902 2.06006 8.13391 2.375 8.13391H4.4175C5.78628 8.13363 7.11311 8.60628 8.17345 9.47186C9.23378 10.3374 9.96249 11.5428 10.2362 12.8839L13.0625 26.8964C13.097 27.0526 13.0996 27.2141 13.0701 27.3713C13.0407 27.5285 12.9797 27.6782 12.891 27.8113C12.8023 27.9443 12.6876 28.0581 12.5538 28.1458C12.42 28.2335 12.2699 28.2932 12.1125 28.3214H11.875Z" fill="#667C87"/>
<path d="M13.0625 36.6339H10.8538C9.59429 36.6261 8.38585 36.1352 7.47772 35.2625C6.56959 34.3898 6.03104 33.2019 5.97316 31.9437C5.91527 30.6855 6.34248 29.4531 7.16665 28.5007C7.99081 27.5483 9.14908 26.9486 10.4025 26.8252L32.2644 24.842L34.1763 15.2589H9.50001C9.18507 15.2589 8.88302 15.1338 8.66032 14.9111C8.43762 14.6884 8.31251 14.3864 8.31251 14.0714C8.31251 13.7565 8.43762 13.4544 8.66032 13.2317C8.88302 13.009 9.18507 12.8839 9.50001 12.8839H35.625C35.8004 12.8851 35.9734 12.9251 36.1315 13.001C36.2896 13.077 36.4289 13.1871 36.5394 13.3233C36.6555 13.4568 36.7402 13.6147 36.7875 13.7852C36.8348 13.9557 36.8433 14.1347 36.8125 14.3089L34.4375 26.1839C34.3873 26.4351 34.2573 26.6632 34.0669 26.8345C33.8764 27.0057 33.6357 27.1107 33.3806 27.1339L10.6163 29.2002C9.94543 29.2317 9.31458 29.5283 8.8625 30.025C8.41042 30.5216 8.17414 31.1775 8.20564 31.8483C8.23713 32.5191 8.53382 33.15 9.03044 33.602C9.52706 34.0541 10.1829 34.2904 10.8538 34.2589H13.0625C13.3775 34.2589 13.6795 34.384 13.9022 34.6067C14.1249 34.8294 14.25 35.1315 14.25 35.4464C14.25 35.7614 14.1249 36.0634 13.9022 36.2861C13.6795 36.5088 13.3775 36.6339 13.0625 36.6339Z" fill="#667C87"/>
<path d="M30.875 40.1964C29.9355 40.1964 29.0172 39.9178 28.236 39.3959C27.4549 38.874 26.8461 38.1321 26.4866 37.2642C26.1271 36.3962 26.033 35.4411 26.2163 34.5197C26.3996 33.5983 26.8519 32.752 27.5162 32.0877C28.1805 31.4234 29.0269 30.971 29.9483 30.7877C30.8697 30.6044 31.8248 30.6985 32.6927 31.058C33.5607 31.4175 34.3025 32.0263 34.8245 32.8075C35.3464 33.5886 35.625 34.507 35.625 35.4464C35.625 36.7062 35.1246 37.9144 34.2338 38.8052C33.343 39.696 32.1348 40.1964 30.875 40.1964ZM30.875 33.0714C30.4053 33.0714 29.9461 33.2107 29.5555 33.4717C29.165 33.7326 28.8605 34.1036 28.6808 34.5375C28.501 34.9715 28.454 35.449 28.5456 35.9098C28.6373 36.3705 28.8635 36.7936 29.1956 37.1258C29.5278 37.4579 29.951 37.6841 30.4117 37.7758C30.8724 37.8674 31.3499 37.8204 31.7839 37.6406C32.2179 37.4609 32.5888 37.1565 32.8497 36.7659C33.1107 36.3753 33.25 35.9161 33.25 35.4464C33.25 34.8165 32.9998 34.2124 32.5544 33.767C32.109 33.3216 31.5049 33.0714 30.875 33.0714Z" fill="#667C87"/>
<path d="M16.625 40.1964C15.6855 40.1964 14.7672 39.9178 13.986 39.3959C13.2049 38.874 12.5961 38.1321 12.2366 37.2642C11.8771 36.3962 11.783 35.4411 11.9663 34.5197C12.1496 33.5983 12.6019 32.752 13.2662 32.0877C13.9305 31.4234 14.7769 30.971 15.6983 30.7877C16.6197 30.6044 17.5748 30.6985 18.4428 31.058C19.3107 31.4175 20.0525 32.0263 20.5745 32.8075C21.0964 33.5886 21.375 34.507 21.375 35.4464C21.375 36.7062 20.8746 37.9144 19.9838 38.8052C19.093 39.696 17.8848 40.1964 16.625 40.1964ZM16.625 33.0714C16.1553 33.0714 15.6961 33.2107 15.3055 33.4717C14.915 33.7326 14.6105 34.1036 14.4308 34.5375C14.251 34.9715 14.204 35.449 14.2956 35.9098C14.3873 36.3705 14.6135 36.7936 14.9456 37.1258C15.2778 37.4579 15.701 37.6841 16.1617 37.7758C16.6224 37.8674 17.0999 37.8204 17.5339 37.6406C17.9679 37.4609 18.3388 37.1565 18.5997 36.7659C18.8607 36.3753 19 35.9161 19 35.4464C19 34.8165 18.7498 34.2124 18.3044 33.767C17.859 33.3216 17.2549 33.0714 16.625 33.0714Z" fill="#667C87"/>
<path d="M27.3125 36.6339H20.1875C19.8726 36.6339 19.5705 36.5088 19.3478 36.2861C19.1251 36.0634 19 35.7614 19 35.4464C19 35.1315 19.1251 34.8294 19.3478 34.6067C19.5705 34.384 19.8726 34.2589 20.1875 34.2589H27.3125C27.6274 34.2589 27.9295 34.384 28.1522 34.6067C28.3749 34.8294 28.5 35.1315 28.5 35.4464C28.5 35.7614 28.3749 36.0634 28.1522 36.2861C27.9295 36.5088 27.6274 36.6339 27.3125 36.6339Z" fill="#667C87"/>
<circle cx="36.0714" cy="12.0714" r="12.0714" fill="white"/>
</svg>
