<svg width="46" height="42" viewBox="0 0 46 42" fill="none" xmlns="http://www.w3.org/2000/svg">
<g clip-path="url(#clip0_113_2)">
<path d="M22.8007 15.766C22.7739 15.7341 22.7426 15.7056 22.7076 15.681L22.715 15.6793L15.3252 10.4802C15.1053 10.3245 14.7888 10.3612 14.6184 10.562C14.5501 10.6425 14.5129 10.7415 14.5128 10.8434L14.5017 12.9855H8.5638C8.28457 12.9855 8.05814 13.1923 8.05814 13.4472V18.643C8.05814 18.898 8.28457 19.1047 8.5638 19.1047H14.4924L14.4496 21.2129C14.4328 21.4674 14.6452 21.6862 14.924 21.7016C15.0446 21.7082 15.164 21.6752 15.2602 21.6084L22.7076 16.4109C22.9285 16.2563 22.9701 15.9676 22.8007 15.766ZM15.4796 20.2981L15.5075 18.6482C15.5106 18.3942 15.2876 18.1859 15.0094 18.1831C15.0087 18.1831 15.0081 18.1831 15.0074 18.1831H9.07142V13.909H15.0074C15.2867 13.909 15.5131 13.7023 15.5131 13.4473C15.5131 13.4337 15.5131 13.4219 15.5131 13.4083V11.7771L21.5737 16.0427L15.4796 20.2981Z" fill="#667C87"/>
<path d="M45.9777 23.9713L44.3436 19.0624C44.3265 18.9906 44.2908 18.9237 44.2395 18.8672L36.8385 10.7094C36.7433 10.5922 36.593 10.5229 36.4332 10.5227H29.5361V7.97656C29.5361 7.72161 29.3097 7.51486 29.0304 7.51486H1.9419C1.66407 7.51486 1.43828 7.71949 1.43624 7.97316V23.7201C0.574093 23.8986 -0.0279668 24.6107 0.00103467 25.4175V28.3438C0.00307965 29.3218 0.870801 30.114 1.9419 30.1159H4.24901C4.53354 32.7759 7.12592 34.7217 10.0393 34.462C12.5591 34.2372 14.5531 32.4167 14.7992 30.1159H32.6686C32.9532 32.7759 35.5455 34.7217 38.4589 34.462C40.9788 34.2372 42.9727 32.4167 43.2188 30.1159H44.0536C44.567 30.1154 45.0593 29.9285 45.4218 29.5965C45.7866 29.2653 45.992 28.8152 45.9926 28.3455L46 28.3489V24.1054C45.9998 24.0599 45.9923 24.0146 45.9777 23.9713ZM2.44943 8.43486H28.5229V23.6505H2.44943V8.43486ZM12.5553 32.4278C10.8816 33.9568 8.16719 33.9574 6.49254 32.4291C4.81789 30.901 4.81724 28.4226 6.49105 26.8935C8.16477 25.3645 10.8792 25.3639 12.5538 26.8922C13.3584 27.6264 13.8103 28.6224 13.8102 29.661C13.8113 30.6989 13.3598 31.6944 12.5553 32.4278ZM40.9824 32.4278C39.3087 33.9568 36.5942 33.9574 34.9196 32.4291C33.2449 30.9009 33.2443 28.4226 34.9181 26.8935C36.5918 25.3645 39.3062 25.3639 40.9809 26.8922C41.7854 27.6264 42.2373 28.6224 42.2373 29.661C42.2384 30.6989 41.7868 31.6944 40.9824 32.4278ZM44.9943 28.3489L44.9905 28.354C44.9904 28.5786 44.8928 28.7941 44.7191 28.9532C44.5449 29.1118 44.3089 29.2009 44.0629 29.201H43.2281C43.2281 29.201 42.5236 24.8251 37.9521 24.8251C34.2749 24.8251 32.8341 27.7005 32.6761 29.201H14.7992C14.7992 29.201 14.2415 24.8251 9.52319 24.8251C6.43156 24.8251 4.52601 26.9163 4.24715 29.201H1.9419C1.42852 29.201 1.01237 28.821 1.01237 28.3523V25.4175C1.02324 24.9529 1.43308 24.5787 1.9419 24.5688H29.0286C29.3078 24.5688 29.5342 24.362 29.5342 24.1071V11.4478H36.2009L43.401 19.3967L44.9943 24.1817V28.3489Z" fill="#667C87"/>
<path d="M42.6146 22.1024L42.6165 22.1075L41.9379 19.816C41.9165 19.7416 41.875 19.6733 41.8171 19.6174L35.6821 12.8278C35.5868 12.7203 35.4433 12.6579 35.2917 12.658H31.2576C30.9783 12.658 30.7519 12.8648 30.7519 13.1197V22.2195C30.7519 22.4745 30.9783 22.6812 31.2576 22.6812H31.3022H42.1275C42.4058 22.6814 42.6315 22.4756 42.6317 22.2216C42.6317 22.1813 42.626 22.1412 42.6146 22.1024ZM31.7651 21.768V13.5814H35.0594L40.9898 20.1453L41.4694 21.7663L31.7651 21.768Z" fill="#667C87"/>
<path d="M39.5512 28.2031C39.5499 28.2019 39.5485 28.2006 39.5472 28.1994C38.6669 27.3937 37.2379 27.3921 36.3554 28.1958C36.3541 28.197 36.3527 28.1983 36.3514 28.1994C35.4689 29.0032 35.4672 30.3079 36.3474 31.1136C36.3487 31.1148 36.3501 31.1161 36.3514 31.1173C37.2317 31.9231 38.6607 31.9247 39.5432 31.1209C39.5445 31.1198 39.5459 31.1185 39.5472 31.1173C40.4297 30.3136 40.4314 29.0088 39.5512 28.2031ZM38.8351 30.4673C38.3428 30.9126 37.5482 30.909 37.0605 30.4595C36.5727 30.0099 36.5766 29.2844 37.069 28.8391C37.5614 28.3938 38.356 28.3974 38.8437 28.8469C39.078 29.063 39.2087 29.3552 39.207 29.6593C39.2057 29.963 39.072 30.2538 38.8351 30.4673Z" fill="#667C87"/>
<path d="M11.126 28.2031C11.1247 28.2019 11.1233 28.2006 11.122 28.1994C10.2417 27.3937 8.81275 27.3921 7.93025 28.1958C7.92895 28.197 7.92756 28.1983 7.92625 28.1994C7.04375 29.0032 7.04199 30.3079 7.92226 31.1136C7.92356 31.1148 7.92495 31.1161 7.92625 31.1173C8.80652 31.9231 10.2355 31.9247 11.118 31.1209C11.1193 31.1198 11.1207 31.1185 11.122 31.1173C12.0045 30.3136 12.0063 29.0088 11.126 28.2031ZM10.41 30.4673C9.9176 30.9126 9.12303 30.909 8.6353 30.4595C8.14758 30.0099 8.15148 29.2844 8.64385 28.8391C9.13623 28.3938 9.9308 28.3974 10.4185 28.8469C10.6529 29.063 10.7836 29.3552 10.7818 29.6593C10.7801 29.9633 10.6456 30.2542 10.4081 30.4673H10.41Z" fill="#667C87"/>
</g>
<defs>
<clipPath id="clip0_113_2">
<rect width="46" height="42" fill="white"/>
</clipPath>
</defs>
</svg>
