<svg width="36" height="36" viewBox="0 0 36 36" fill="none" xmlns="http://www.w3.org/2000/svg">
<path d="M29.625 11.625C29.418 11.625 29.25 11.457 29.25 11.25V4.5H25.5V7.5C25.5 7.707 25.332 7.875 25.125 7.875C24.918 7.875 24.75 7.707 24.75 7.5V4.5C24.75 4.08675 25.086 3.75 25.5 3.75H29.25C29.664 3.75 30 4.08675 30 4.5V11.25C30 11.457 29.832 11.625 29.625 11.625Z" fill="#667C87"/>
<path d="M32.1855 19.1198C32.01 19.1198 31.842 19.0575 31.7055 18.9428L18.2055 7.52176C18.0712 7.40701 17.8747 7.40626 17.7375 7.52176L4.29374 18.9293C4.14149 19.059 3.95249 19.122 3.74699 19.1033C3.54749 19.086 3.36674 18.9908 3.23924 18.8363L2.04824 17.4C1.78574 17.0858 1.82624 16.6125 2.13899 16.347L17.2882 3.49426C17.7045 3.14026 18.3105 3.14026 18.7267 3.49426L33.8617 16.3605H33.8625C34.1722 16.626 34.2135 17.097 33.9532 17.4128L32.7592 18.8505C32.631 19.005 32.451 19.0995 32.2515 19.1168C32.2297 19.119 32.2072 19.1198 32.1855 19.1198ZM17.973 6.68476C18.228 6.68476 18.483 6.77326 18.6907 6.94951L32.1915 18.3705L33.618 16.6455L33.375 16.9313L18.2407 4.06576C18.1057 3.95176 17.9092 3.94951 17.7727 4.06576L2.62499 16.9185L3.81749 18.357L17.253 6.95026C17.4615 6.77326 17.7172 6.68476 17.973 6.68476Z" fill="#667C87"/>
<path d="M30 33.75H18.375C18.168 33.75 18 33.582 18 33.375C18 33.168 18.168 33 18.375 33H30V19.9388L18.2415 10.0673C18.102 9.95026 17.8988 9.95026 17.7578 10.068L6 19.9568V33H8.6475C8.8545 33 9.0225 33.168 9.0225 33.375C9.0225 33.582 8.8545 33.75 8.6475 33.75H6C5.586 33.75 5.25 33.4133 5.25 33V19.782C5.25 19.6718 5.29875 19.566 5.3835 19.4948L17.2755 9.49351C17.6963 9.14026 18.3045 9.14101 18.7238 9.49276L30.6157 19.4775C30.7012 19.548 30.75 19.6538 30.75 19.7648V33C30.75 33.4133 30.414 33.75 30 33.75Z" fill="#667C87"/>
<path d="M18 15.75C17.1727 15.75 16.5 15.0773 16.5 14.25C16.5 13.4227 17.1727 12.75 18 12.75C18.8273 12.75 19.5 13.4227 19.5 14.25C19.5 15.0773 18.8273 15.75 18 15.75ZM18 13.5C17.586 13.5 17.25 13.8368 17.25 14.25C17.25 14.6632 17.586 15 18 15C18.414 15 18.75 14.6632 18.75 14.25C18.75 13.8368 18.414 13.5 18 13.5Z" fill="#667C87"/>
<path d="M26.25 29.25H20.25C19.836 29.25 19.5 28.9132 19.5 28.5V24.375C19.5 24.168 19.668 24 19.875 24C20.082 24 20.25 24.168 20.25 24.375V28.5H26.25V23.25H19.875C19.668 23.25 19.5 23.082 19.5 22.875C19.5 22.668 19.668 22.5 19.875 22.5H26.25C26.664 22.5 27 22.8368 27 23.25V28.5C27 28.9132 26.664 29.25 26.25 29.25Z" fill="#667C87"/>
<path d="M16.875 33.75C16.668 33.75 16.5 33.582 16.5 33.375V23.25H10.5V33.375C10.5 33.582 10.332 33.75 10.125 33.75C9.918 33.75 9.75 33.582 9.75 33.375V23.25C9.75 22.8368 10.086 22.5 10.5 22.5H16.5C16.914 22.5 17.25 22.8368 17.25 23.25V33.375C17.25 33.582 17.082 33.75 16.875 33.75Z" fill="#667C87"/>
<path d="M15.375 28.5C15.168 28.5 15 28.332 15 28.125V27.375C15 27.168 15.168 27 15.375 27C15.582 27 15.75 27.168 15.75 27.375V28.125C15.75 28.332 15.582 28.5 15.375 28.5Z" fill="#667C87"/>
<path d="M16.875 33.75H10.125C9.918 33.75 9.75 33.582 9.75 33.375C9.75 33.168 9.918 33 10.125 33H16.875C17.082 33 17.25 33.168 17.25 33.375C17.25 33.582 17.082 33.75 16.875 33.75Z" fill="#667C87"/>
</svg>
