<svg width="17" height="29" viewBox="0 0 17 29" fill="none" xmlns="http://www.w3.org/2000/svg">
<path d="M10.958 20.6287L15.708 12.9908C15.7235 12.9661 15.7365 12.9401 15.7467 12.9132C16.5669 11.5756 17 10.0476 17 8.48757C17 3.80753 13.1925 0 8.51251 0C3.83252 0 0.0247113 3.80753 0.0247113 8.48757C0.0247113 10.0479 0.458432 11.5766 1.2793 12.9151C1.28881 12.9386 1.29989 12.9614 1.3132 12.9835L5.89277 20.6477C2.33778 21.1502 0 22.612 0 24.3852C0 26.5823 3.73367 28.303 8.49984 28.303C13.266 28.303 16.9997 26.582 16.9997 24.3852C17 22.6037 14.5532 21.1093 10.958 20.6287ZM2.13248 12.4871C1.3753 11.2819 0.975158 9.899 0.975158 8.48757C0.975158 4.33154 4.35621 0.950456 8.51251 0.950456C12.6685 0.950456 16.0496 4.33154 16.0496 8.48757C16.0496 9.89963 15.6494 11.2825 14.8925 12.4871C14.8767 12.5124 14.8637 12.5387 14.8533 12.566L9.8349 20.6344C9.7595 20.75 9.74461 20.7763 9.65242 20.9278L8.38515 22.9655L2.17494 12.5726C2.16385 12.5432 2.14959 12.5143 2.13248 12.4871ZM8.50016 27.3525C4.05112 27.3525 0.950763 25.7884 0.950763 24.3852C0.950763 23.1116 3.28569 21.9115 6.42628 21.5399L7.96918 24.1222C8.0544 24.2645 8.2071 24.3523 8.3728 24.3535C8.37406 24.3535 8.37565 24.3535 8.37692 24.3535C8.54103 24.3535 8.69373 24.2686 8.78054 24.1292L10.4026 21.5212C13.5933 21.8668 16.0492 23.0973 16.0492 24.3852C16.0496 25.7887 12.9492 27.3525 8.50016 27.3525Z" fill="#667C87"/>
<path d="M11.5863 8.48759C11.5863 6.78596 10.2018 5.40146 8.50019 5.40146C6.79858 5.40146 5.41409 6.78596 5.41409 8.48759C5.41409 10.1892 6.79858 11.5737 8.50019 11.5737C10.2018 11.5737 11.5863 10.1892 11.5863 8.48759ZM6.36454 8.48759C6.36454 7.30997 7.32259 6.35191 8.50019 6.35191C9.6778 6.35191 10.6358 7.30997 10.6358 8.48759C10.6358 9.6652 9.67811 10.6233 8.50019 10.6233C7.32227 10.6233 6.36454 9.6652 6.36454 8.48759Z" fill="#667C87"/>
</svg>
