<svg width="36" height="33" viewBox="0 0 36 33" fill="none" xmlns="http://www.w3.org/2000/svg">
<path d="M4.20238 22.6719C6.67139 24.9606 9.95932 26.3345 13.4468 26.5348C16.9342 26.7352 20.3805 25.7481 23.1362 23.7596L32.6183 32.5367C32.9546 32.8373 33.405 33.0037 33.8725 32.9999C34.34 32.9962 34.7872 32.8226 35.1178 32.5166C35.4483 32.2106 35.6359 31.7966 35.6399 31.3639C35.644 30.9311 35.4643 30.5142 35.1395 30.203L25.6574 21.4258C27.901 18.7606 28.9617 15.4035 28.6232 12.0393C28.2848 8.67504 26.5727 5.557 23.836 3.32107C21.0994 1.08515 17.5444 -0.100244 13.896 0.00664855C10.2477 0.113542 6.78078 1.50467 4.20238 3.89632C2.87011 5.12892 1.81325 6.59242 1.09219 8.20321C0.371131 9.814 0 11.5405 0 13.2841C0 15.0277 0.371131 16.7542 1.09219 18.365C1.81325 19.9758 2.87011 21.4393 4.20238 22.6719ZM6.72357 6.23336C8.48621 4.6018 10.8055 3.58643 13.2862 3.36024C15.7669 3.13406 18.2556 3.71105 20.3283 4.99292C22.4009 6.27479 23.9293 8.18222 24.653 10.3902C25.3768 12.5982 25.251 14.9702 24.2973 17.1021C23.3435 19.2339 21.6207 20.9936 19.4224 22.0815C17.2242 23.1694 14.6864 23.5181 12.2415 23.0682C9.79662 22.6183 7.59589 21.3976 6.01427 19.6142C4.43266 17.8307 3.568 15.5948 3.56763 13.2874C3.56274 11.9763 3.83919 10.6772 4.38095 9.46575C4.9227 8.25427 5.71898 7.15443 6.72357 6.23006V6.23336ZM5.98183 13.2825C5.98183 12.8447 6.16968 12.4249 6.50406 12.1154C6.83844 11.8059 7.29196 11.632 7.76485 11.632C8.23773 11.632 8.69125 11.8059 9.02563 12.1154C9.36001 12.4249 9.54786 12.8447 9.54786 13.2825C9.54928 14.4591 10.0549 15.5872 10.9537 16.4192C11.8526 17.2512 13.0712 17.7192 14.3424 17.7205C14.8153 17.7205 15.2688 17.8944 15.6032 18.204C15.9376 18.5135 16.1254 18.9333 16.1254 19.371C16.1254 19.8087 15.9376 20.2285 15.6032 20.5381C15.2688 20.8476 14.8153 21.0215 14.3424 21.0215C12.1266 21.0167 10.0031 20.1998 8.4363 18.7495C6.86952 17.2992 5.98701 15.3335 5.98183 13.2825Z" fill="#667C87"/>
</svg>
