<svg width="36" height="33" viewBox="0 0 36 33" fill="none" xmlns="http://www.w3.org/2000/svg">
<path d="M34.9024 23.0727L29.5628 18.2712C29.0883 17.8433 28.4564 17.6079 27.7842 17.6079H27.7817C27.1096 17.6079 26.4777 17.8444 26.0031 18.2712L22.4434 21.4722L11.7631 11.868L15.3228 8.66698C16.3046 7.78409 16.3046 6.34658 15.3215 5.46369L9.98072 0.662163C9.50618 0.235436 8.87429 0 8.20213 0C7.52871 0 6.89556 0.236568 6.42102 0.664427L1.08022 5.46709C0.91784 5.61197 -0.489424 6.98157 0.178963 9.9913C0.966931 13.533 4.26481 17.9361 9.98072 23.0761C18.1612 30.4323 23.3208 32.06 26.2851 32.06C28.3368 32.06 29.3388 31.2801 29.5628 31.0786L34.9024 26.2771C35.3782 25.8493 35.6413 25.2799 35.64 24.6743C35.64 24.0699 35.3782 23.5006 34.9024 23.0727ZM27.783 29.477C27.7477 29.5087 23.492 32.0226 11.7606 21.4744C-0.223831 10.6987 2.8651 7.06647 2.86007 7.0676L8.20087 2.2638L13.5417 7.0676L9.09205 11.0689C8.59989 11.5114 8.59989 12.2268 9.09205 12.6694L21.5523 23.8741C22.0444 24.3167 22.8399 24.3167 23.3321 23.8741L27.7817 19.8717L33.1225 24.6755L27.783 29.477Z" fill="#667C87"/>
</svg>
